HIERARCHY
ROOT Hips
{
	OFFSET 56.877701 -32.693596 43.373703
	CHANNELS 6 Xposition Yposition Zposition Zrotation Xrotation Yrotation
	JOINT Chest
	{
		OFFSET -0.779999 1.005800 5.403099
		CHANNELS 6 Xposition Yposition Zposition Zrotation Xrotation Yrotation
		JOINT Chest2
		{
			OFFSET 0.000000 0.000000 4.236801
			CHANNELS 6 Xposition Yposition Zposition Zrotation Xrotation Yrotation
			JOINT Neck
			{
				OFFSET 0.000000 0.000000 9.874401
				CHANNELS 6 Xposition Yposition Zposition Zrotation Xrotation Yrotation
				JOINT Head
				{
					OFFSET 0.000000 0.000002 2.173893
					CHANNELS 6 Xposition Yposition Zposition Zrotation Xrotation Yrotation
					End Site
					{
						OFFSET 0.000000 0.000000 6.508102
					}
				}
			}
			JOINT LeftCollar
			{
				OFFSET 2.681599 -0.377600 5.432499
				CHANNELS 6 Xposition Yposition Zposition Zrotation Xrotation Yrotation
				JOINT LeftShoulder
				{
					OFFSET 5.161499 0.000000 0.000000
					CHANNELS 6 Xposition Yposition Zposition Zrotation Xrotation Yrotation
					JOINT LeftElbow
					{
						OFFSET 0.000000 0.000000 -10.869099
						CHANNELS 6 Xposition Yposition Zposition Zrotation Xrotation Yrotation
						JOINT LeftWrist
						{
							OFFSET 0.000000 0.000000 -13.344799
							CHANNELS 6 Xposition Yposition Zposition Zrotation Xrotation Yrotation
							End Site
							{
								OFFSET 0.000000 0.000000 -2.173901
							}
						}
					}
				}
			}
			JOINT RightCollar
			{
				OFFSET -2.381901 -1.419600 6.136600
				CHANNELS 6 Xposition Yposition Zposition Zrotation Xrotation Yrotation
				JOINT RightShoulder
				{
					OFFSET -4.550499 0.000000 0.000000
					CHANNELS 6 Xposition Yposition Zposition Zrotation Xrotation Yrotation
					JOINT RightElbow
					{
						OFFSET 0.000000 0.000000 -11.106499
						CHANNELS 6 Xposition Yposition Zposition Zrotation Xrotation Yrotation
						JOINT RightWrist
						{
							OFFSET 0.000000 0.000000 -12.874298
							CHANNELS 6 Xposition Yposition Zposition Zrotation Xrotation Yrotation
							End Site
							{
								OFFSET 0.000000 0.000000 -2.173901
							}
						}
					}
				}
			}
		}
	}
	JOINT LeftHip
	{
		OFFSET 2.431900 0.469601 -2.489399
		CHANNELS 6 Xposition Yposition Zposition Zrotation Xrotation Yrotation
		JOINT LeftKnee
		{
			OFFSET 0.000000 -0.000004 -18.200201
			CHANNELS 6 Xposition Yposition Zposition Zrotation Xrotation Yrotation
			JOINT LeftAnkle
			{
				OFFSET 0.000000 0.000000 -16.279900
				CHANNELS 6 Xposition Yposition Zposition Zrotation Xrotation Yrotation
				End Site
				{
					OFFSET 0.000000 -8.394100 0.000000
				}
			}
		}
	}
	JOINT RightHip
	{
		OFFSET -1.987999 -0.073502 -2.713001
		CHANNELS 6 Xposition Yposition Zposition Zrotation Xrotation Yrotation
		JOINT RightKnee
		{
			OFFSET 0.000000 -0.000004 -19.547802
			CHANNELS 6 Xposition Yposition Zposition Zrotation Xrotation Yrotation
			JOINT RightAnkle
			{
				OFFSET 0.000000 0.000000 -14.881199
				CHANNELS 6 Xposition Yposition Zposition Zrotation Xrotation Yrotation
				End Site
				{
					OFFSET 0.000000 -7.922699 0.000000
				}
			}
		}
	}
}
MOTION
Frames: 10
Frame Time: 0.041667
72.026009 16.908295 36.233395 4522.474794 15.922219 2.553198 -0.779995 1.005802 5.403088 -23.308410 -10.321500 -10.139893 0.000007 0.000000 4.236798 24.451331 0.770177 1.751224 0.000001 0.000004 9.874403 3.998188 15.498589 2.347877 -0.000009 0.000004 2.173886 1.058475 -4.946963 1.029313 2.681596 -0.377597 5.432500 9.945006 -14.574652 -44.781234 5.161505 -0.000003 0.000000 -260.974370 -136.439640 -317.721822 -0.000002 0.000000 -10.869101 19.286036 -21.342239 32.291898 0.000011 0.000002 -13.344803 -14.975217 -28.756148 13.417049 -2.381903 -1.419598 6.136598 -0.122964 -5.802769 42.689420 -4.550490 -0.000008 0.000004 -1202.040511 -508.511955 -403.252538 0.000005 -0.000014 -11.106501 700.994117 -37.440867 700.639166 0.000005 -0.000006 -12.874304 -377.955047 -1.288305 -69.686562 2.431901 0.469606 -2.489401 8.845397 -17.777393 -2.324134 0.000001 0.000001 -18.200205 -97.454341 44.193943 66.371277 -0.000003 -0.000002 -16.279903 -45.224489 57.447218 75.598269 -1.987992 -0.073492 -2.713009 -76.990685 -41.434113 -51.676853 -0.000007 -0.000004 -19.547798 -1885.657644 96.215481 106.108362 0.000000 -0.000000 -14.881196 1779.061668 13.727918 15.188360
72.035889 17.344509 37.051197 4524.713785 15.691846 1.977318 -0.779986 1.005799 5.403097 -25.483354 -10.897908 -10.456635 0.000010 -0.000002 4.236797 26.535075 1.077469 1.948591 -0.000001 -0.000001 9.874390 3.515005 15.430861 2.569089 -0.000009 0.000005 2.173895 1.154103 -4.957895 0.759197 2.681594 -0.377600 5.432495 9.806868 -15.205644 -45.352323 5.161491 -0.000012 -0.000002 -261.779349 -135.999052 -318.369898 -0.000005 0.000006 -10.869112 17.748405 -20.242835 28.716065 0.000004 -0.000004 -13.344793 -15.359033 -29.198693 11.463399 -2.381915 -1.419599 6.136587 -0.949997 -7.101290 42.766263 -4.550498 -0.000006 0.000015 -1200.073963 -507.749815 -402.481765 0.000000 -0.000006 -11.106505 702.128912 -34.473577 702.945912 0.000007 0.000003 -12.874292 -378.359750 -2.684869 -67.466942 2.431921 0.469606 -2.489396 7.843283 -16.720947 -2.715050 0.000008 -0.000001 -18.200207 -93.877528 46.206151 63.957167 -0.000006 0.000009 -16.279902 -45.902665 57.836328 74.654705 -1.987987 -0.073494 -2.712994 -72.843148 -42.117535 -46.372791 -0.000007 0.000004 -19.547792 -1924.608082 96.331902 141.898560 0.000009 0.000003 -14.881197 1780.528028 14.049810 15.801836
72.050308 17.741104 37.863605 4527.034082 15.634822 1.456131 -0.780000 1.005797 5.403098 -27.766232 -11.554796 -10.951542 0.000005 0.000004 4.236802 28.408162 1.361970 2.000873 0.000005 -0.000002 9.874401 3.336431 15.439870 2.886653 -0.000006 0.000005 2.173893 0.976028 -5.030036 0.625567 2.681613 -0.377604 5.432495 9.910470 -15.384958 -45.612177 5.161509 0.000001 -0.000004 -262.838684 -135.463825 -319.484229 -0.000002 0.000004 -10.869094 16.517752 -18.798404 25.450781 0.000011 0.000003 -13.344797 -16.288876 -29.809319 9.009166 -2.381900 -1.419602 6.136596 -0.886674 -7.045992 42.957809 -4.550508 -0.000008 0.000002 -1199.232375 -506.977184 -401.179658 0.000006 -0.000005 -11.106510 703.153222 -31.872542 705.051796 -0.000001 0.000002 -12.874288 -378.064467 -3.044680 -66.187170 2.431899 0.469602 -2.489398 7.665753 -16.401840 -2.957873 0.000008 0.000002 -18.200199 -91.450871 47.489561 62.302691 -0.000006 0.000007 -16.279900 -45.970158 57.697811 74.473166 -1.988011 -0.073500 -2.713003 -68.705836 -42.565278 -41.398268 -0.000008 -0.000000 -19.547800 -1953.621195 98.484545 167.575768 -0.000001 -0.000005 -14.881198 1782.176125 14.554795 16.212292
72.068802 18.097496 38.668098 4529.546280 15.511025 1.144921 -0.779992 1.005810 5.403100 -3.170908 -13.964393 -2.807557 -0.000006 0.000004 4.236796 3.998780 -0.334560 0.007950 -0.000008 0.000003 9.874411 2.809324 15.353937 3.512725 0.000002 0.000007 2.173897 1.140180 -5.141423 0.222128 2.681589 -0.377598 5.432503 9.775626 -15.891834 -46.231713 5.161495 -0.000011 -0.000002 -263.814964 -134.548511 -320.208175 -0.000006 0.000006 -10.869109 14.900590 -17.667965 22.387132 0.000007 -0.000001 -13.344797 -16.723993 -30.005291 7.006757 -2.381908 -1.419600 6.136599 -0.882145 -6.245465 43.109869 -4.550496 -0.000004 0.000010 -1198.159543 -505.830805 -399.102269 0.000000 0.000001 -11.106498 704.412763 -29.341475 707.122491 0.000012 -0.000005 -12.874296 -377.439833 -3.399010 -64.699978 2.431899 0.469609 -2.489398 7.785495 -16.543137 -3.301270 0.000010 -0.000003 -18.200207 -89.064424 48.921701 61.039966 0.000005 -0.000002 -16.279902 -46.039525 57.692019 74.487516 -1.988003 -0.073487 -2.712996 -64.505317 -42.469450 -36.464194 -0.000001 0.000001 -19.547802 -1968.587287 101.805547 179.055772 -0.000004 0.000001 -14.881193 1783.549157 15.283182 16.539923
72.099297 18.409901 39.463306 4532.163390 15.380609 0.576076 -0.780008 1.005797 5.403088 -3.788811 -14.407101 -2.424804 0.000008 -0.000000 4.236800 4.234142 -0.213884 -0.008130 -0.000003 -0.000005 9.874397 2.441614 15.110656 4.025665 0.000002 -0.000003 2.173887 1.026694 -5.214490 0.069614 2.681595 -0.377603 5.432497 9.620651 -16.067931 -46.611250 5.161509 -0.000005 -0.000002 -264.774250 -133.698467 -321.317616 -0.000003 -0.000002 -10.869107 13.300326 -16.636633 19.612533 0.000000 -0.000001 -13.344799 -17.259574 -29.904880 4.614217 -2.381903 -1.419608 6.136592 -1.158785 -6.353344 43.332527 -4.550495 -0.000008 0.000011 -1195.902412 -504.539025 -397.024854 -0.000002 0.000005 -11.106507 705.591053 -26.986740 708.639066 -0.000001 -0.000012 -12.874293 -375.928476 -2.892873 -64.419920 2.431884 0.469605 -2.489407 8.414097 -17.023010 -3.386965 0.000004 -0.000008 -18.200207 -84.967799 51.097567 58.913312 -0.000005 -0.000004 -16.279902 -47.919774 58.838070 73.129606 -1.988010 -0.073499 -2.713009 -60.163230 -42.317926 -31.594734 0.000002 0.000007 -19.547796 -1978.750390 105.634538 185.600842 -0.000006 -0.000002 -14.881201 1785.029505 16.338461 16.859041
72.128998 18.697701 40.251900 4534.963222 15.102607 0.169548 -0.780002 1.005810 5.403093 -4.573150 -14.506803 -2.227766 0.000001 0.000006 4.236795 4.492882 -0.168740 -0.000282 0.000008 0.000007 9.874390 1.637476 14.862797 4.718845 0.000007 0.000001 2.173892 1.021122 -5.246671 -0.223235 2.681612 -0.377592 5.432504 9.739518 -16.596754 -46.782616 5.161510 -0.000001 0.000002 -266.216212 -133.008645 -322.325533 -0.000003 -0.000003 -10.869090 11.964195 -15.566076 17.112969 -0.000002 0.000006 -13.344803 -18.081765 -30.093670 2.521213 -2.381894 -1.419592 6.136599 -1.484586 -6.389996 43.113636 -4.550494 -0.000006 0.000006 -1193.714456 -503.826882 -394.705731 0.000003 -0.000003 -11.106501 706.687380 -25.033401 710.090071 -0.000002 0.000007 -12.874305 -374.636860 -3.986466 -57.366212 2.431899 0.469607 -2.489389 9.693618 -17.795054 -3.506716 0.000007 0.000002 -18.200207 -80.924177 52.945782 56.645259 0.000016 0.000001 -16.279900 -33.494988 62.541788 64.942859 -1.988003 -0.073490 -2.713005 -53.249244 -42.305939 -25.116798 -0.000001 0.000002 -19.547800 -1985.409223 109.769855 186.805906 -0.000003 0.000002 -14.881195 1786.034362 17.537127 16.507850
72.172310 18.961208 41.018906 4537.914300 14.779457 -0.268599 -0.779988 1.005791 5.403099 -5.412749 -14.566487 -1.988863 -0.000004 0.000001 4.236793 4.746100 0.009316 0.007054 -0.000006 0.000009 9.874401 1.066101 14.645981 5.110131 -0.000010 0.000000 2.173897 0.561068 -5.319729 -0.400846 2.681598 -0.377593 5.432498 9.731960 -17.133705 -47.168972 5.161499 0.000008 -0.000002 -268.060910 -132.250972 -323.605019 -0.000009 0.000001 -10.869101 10.792361 -13.982546 14.739125 -0.000005 0.000002 -13.344786 -20.916720 -28.013476 -4.986905 -2.381898 -1.419598 6.136592 -1.603799 -6.270465 42.916749 -4.550491 -0.000006 0.000011 -1191.898282 -503.125449 -392.276315 -0.000004 0.000008 -11.106512 707.670326 -23.475288 711.163067 -0.000001 -0.000013 -12.874294 -372.966004 -3.069870 -57.203565 2.431910 0.469591 -2.489393 10.880421 -18.683219 -3.568436 0.000000 -0.000002 -18.200209 -75.317090 54.950976 53.515499 -0.000005 -0.000003 -16.279898 -13.436049 63.225190 49.618548 -1.987998 -0.073505 -2.712998 -51.423518 -40.551649 -22.307217 0.000006 -0.000006 -19.547802 -1987.338725 113.686422 187.320834 -0.000003 0.000000 -14.881201 1787.101948 19.040129 15.977149
72.213005 19.200298 41.776402 4540.927452 14.333709 -0.687300 -0.779998 1.005792 5.403093 -5.569941 -14.315642 -1.553827 -0.000004 -0.000001 4.236800 4.593887 -0.073601 0.066609 0.000003 -0.000001 9.874403 -0.147293 14.514854 5.602876 0.000006 0.000001 2.173884 0.546830 -5.350427 -0.687919 2.681596 -0.377600 5.432506 9.985877 -17.366466 -47.234894 5.161509 -0.000002 0.000000 -270.872380 -131.644233 -325.818383 -0.000003 0.000004 -10.869106 8.697654 -12.789664 12.570646 0.000003 -0.000004 -13.344801 -22.879530 -25.183666 -12.496675 -2.381903 -1.419605 6.136598 -1.874145 -6.955257 43.016876 -4.550505 -0.000006 0.000008 -1190.220241 -502.523081 -390.916260 0.000005 0.000010 -11.106501 708.581255 -22.144836 712.088530 -0.000001 -0.000002 -12.874289 -371.142535 -3.201078 -53.827327 2.431901 0.469597 -2.489393 12.413837 -19.623473 -3.467035 0.000004 -0.000007 -18.200203 -69.520889 56.631974 50.169693 0.000001 -0.000001 -16.279903 6.374259 59.254070 32.988321 -1.988002 -0.073507 -2.712996 -46.256022 -39.154961 -17.569777 -0.000012 -0.000005 -19.547798 -1990.192541 118.029863 186.516347 0.000001 -0.000002 -14.881199 1787.741363 20.912868 15.486110
72.251411 19.423702 42.510197 4544.264956 13.838369 -1.107970 -0.779999 1.005801 5.403102 -6.155399 -14.056214 -1.109761 -0.000005 -0.000001 4.236793 4.473502 -0.142480 0.004527 0.000003 -0.000006 9.874397 -1.170164 14.477733 5.974130 0.000012 -0.000000 2.173891 0.231050 -5.248185 -0.872119 2.681594 -0.377610 5.432495 10.256014 -17.296500 -46.986934 5.161503 -0.000001 0.000002 -273.328379 -131.147391 -327.868150 0.000002 0.000008 -10.869099 7.088641 -11.987552 10.758123 0.000002 -0.000006 -13.344802 -24.695478 -22.235732 -18.653002 -2.381907 -1.419606 6.136595 -1.914179 -6.979901 42.951173 -4.550504 -0.000011 0.000006 -1188.619572 -501.904922 -388.941816 0.000003 -0.000005 -11.106517 709.700532 -21.232138 712.730349 0.000005 0.000007 -12.874305 -369.058125 -3.305287 -50.003798 2.431895 0.469604 -2.489395 13.280336 -20.482977 -3.395356 0.000005 0.000003 -18.200207 -62.253937 57.884733 46.016084 -0.000009 0.000004 -16.279903 19.311498 52.312754 19.098671 -1.988001 -0.073502 -2.713008 -41.937642 -37.448008 -13.672732 -0.000003 0.000000 -19.547798 -1991.926645 122.075630 185.535259 0.000000 -0.000001 -14.881199 1788.251387 23.029694 14.696118
72.274307 19.614098 43.229397 4547.113746 13.572810 -1.538377 -0.779996 1.005807 5.403094 -5.900779 -14.172408 -0.405624 -0.000007 -0.000006 4.236802 4.118965 -0.201017 -0.004172 0.000001 0.000002 9.874398 -2.527495 14.757597 6.278685 -0.000007 -0.000003 2.173883 0.041974 -5.246717 -0.990581 2.681596 -0.377598 5.432494 10.137372 -16.215991 -46.581962 5.161503 -0.000007 0.000000 -274.826841 -131.501755 -330.243854 0.000005 -0.000007 -10.869099 5.680367 -11.170939 9.251630 0.000003 -0.000003 -13.344802 -26.048159 -19.149521 -23.746403 -2.381904 -1.419595 6.136592 -1.694645 -6.842326 42.565186 -4.550493 -0.000004 0.000000 -1188.356200 -502.035624 -387.837511 -0.000003 0.000011 -11.106510 710.370546 -20.560056 713.212233 0.000009 -0.000004 -12.874298 -366.572428 -3.729305 -45.062682 2.431899 0.469606 -2.489395 15.210770 -21.525715 -2.606322 -0.000008 -0.000008 -18.200207 -56.123862 58.492285 42.187951 -0.000002 0.000008 -16.279894 25.997375 43.596848 10.463022 -1.988004 -0.073502 -2.712999 -36.695270 -35.839348 -9.854267 -0.000007 0.000001 -19.547802 -1992.753917 126.073339 183.787277 0.000002 0.000003 -14.881202 1788.340234 25.544320 13.681318
